<?xml version="1.0" encoding="UTF-8" standalone="no"?>
<!-- Uploaded to: SVG Repo, www.svgrepo.com, Generator: SVG Repo Mixer Tools -->

<svg
   width="800px"
   height="800px"
   viewBox="0 0 512 512"
   version="1.1"
   id="svg1"
   sodipodi:docname="widget-remove.svg"
   inkscape:version="1.3.2 (091e20e, 2023-11-25, custom)"
   xmlns:inkscape="http://www.inkscape.org/namespaces/inkscape"
   xmlns:sodipodi="http://sodipodi.sourceforge.net/DTD/sodipodi-0.dtd"
   xmlns="http://www.w3.org/2000/svg"
   xmlns:svg="http://www.w3.org/2000/svg">
  <defs
     id="defs1" />
  <sodipodi:namedview
     id="namedview1"
     pagecolor="#ffffff"
     bordercolor="#000000"
     borderopacity="0.25"
     inkscape:showpageshadow="2"
     inkscape:pageopacity="0.0"
     inkscape:pagecheckerboard="0"
     inkscape:deskcolor="#d1d1d1"
     inkscape:zoom="1.01625"
     inkscape:cx="400.492"
     inkscape:cy="400"
     inkscape:window-width="1920"
     inkscape:window-height="1009"
     inkscape:window-x="-8"
     inkscape:window-y="-8"
     inkscape:window-maximized="1"
     inkscape:current-layer="svg1" />
  <title
     id="title1">add-circle</title>
  <g
     id="Page-1"
     stroke="none"
     stroke-width="1"
     fill="none"
     fill-rule="evenodd">
    <g
       id="drop"
       fill="#000000"
       transform="translate(42.666667, 42.666667)">
      <path
         d="m 213.33333,0 c 56.57952,0 110.84169,22.476126 150.84945,62.483887 40.00776,40.007763 62.48389,94.269933 62.48389,150.849443 0,117.82075 -95.51259,213.33334 -213.33334,213.33334 C 95.512587,426.66667 0,331.15408 0,213.33333 0,95.512587 95.512587,0 213.33333,0 Z m 0,42.666667 c -94.25659,0 -170.666663,76.410073 -170.666663,170.666663 0,94.2566 76.410073,170.66667 170.666663,170.66667 45.26362,0 88.67335,-17.9809 120.67956,-49.98711 C 366.0191,302.00668 384,258.59695 384,213.33333 384,119.07674 307.58993,42.666667 213.33333,42.666667 Z M 234.666,192 H 320 v 42.66667 L 234.666,234.666 H 192 l -85.33333,6.7e-4 V 192 H 192 Z"
         id="add-workorder"
         sodipodi:nodetypes="ssssssssssssccccccccc" />
    </g>
  </g>
</svg>
